<svg id="Layer_1" data-name="Layer 1" xmlns="http://www.w3.org/2000/svg" viewBox="0 0 612.73 612.73"><defs><style>.cls-1{fill:#aad154;}.cls-2{fill:#a2cd4b;}</style></defs><rect class="cls-1" width="47.13" height="47.13"/><rect class="cls-2" x="47.13" width="47.13" height="47.13"/><rect class="cls-1" x="94.27" width="47.13" height="47.13"/><rect class="cls-2" x="141.4" width="47.13" height="47.13"/><rect class="cls-1" x="188.53" width="47.13" height="47.13"/><rect class="cls-2" x="235.67" width="47.13" height="47.13"/><rect class="cls-1" x="282.8" width="47.13" height="47.13"/><rect class="cls-2" x="329.93" width="47.13" height="47.13"/><rect class="cls-1" x="377.06" width="47.13" height="47.13"/><rect class="cls-2" x="424.2" width="47.13" height="47.13"/><rect class="cls-1" x="471.33" width="47.13" height="47.13"/><rect class="cls-2" x="518.46" width="47.13" height="47.13"/><rect class="cls-1" x="565.59" width="47.13" height="47.13"/><rect class="cls-2" y="47.13" width="47.13" height="47.14"/><rect class="cls-1" x="47.13" y="47.13" width="47.13" height="47.13"/><rect class="cls-2" x="94.27" y="47.13" width="47.13" height="47.13"/><rect class="cls-1" x="141.4" y="47.13" width="47.13" height="47.13"/><rect class="cls-2" x="188.53" y="47.13" width="47.13" height="47.13"/><rect class="cls-1" x="235.67" y="47.13" width="47.13" height="47.13"/><rect class="cls-2" x="282.8" y="47.13" width="47.13" height="47.13"/><rect class="cls-1" x="329.93" y="47.13" width="47.13" height="47.13"/><rect class="cls-2" x="377.06" y="47.13" width="47.13" height="47.13"/><rect class="cls-1" x="424.2" y="47.13" width="47.13" height="47.13"/><rect class="cls-2" x="471.33" y="47.13" width="47.13" height="47.13"/><rect class="cls-1" x="518.46" y="47.13" width="47.13" height="47.13"/><rect class="cls-2" x="565.59" y="47.13" width="47.13" height="47.13"/><rect class="cls-1" y="94.27" width="47.13" height="47.13"/><rect class="cls-2" x="47.13" y="94.27" width="47.13" height="47.13"/><rect class="cls-1" x="94.27" y="94.27" width="47.13" height="47.13"/><rect class="cls-2" x="141.4" y="94.27" width="47.13" height="47.13"/><rect class="cls-1" x="188.53" y="94.27" width="47.13" height="47.13"/><rect class="cls-2" x="235.67" y="94.27" width="47.13" height="47.13"/><rect class="cls-1" x="282.8" y="94.27" width="47.13" height="47.13"/><rect class="cls-2" x="329.93" y="94.27" width="47.13" height="47.13"/><rect class="cls-1" x="377.06" y="94.27" width="47.13" height="47.13"/><rect class="cls-2" x="424.2" y="94.27" width="47.13" height="47.13"/><rect class="cls-1" x="471.33" y="94.27" width="47.13" height="47.13"/><rect class="cls-2" x="518.46" y="94.27" width="47.13" height="47.13"/><rect class="cls-1" x="565.59" y="94.27" width="47.13" height="47.13"/><rect class="cls-2" y="141.4" width="47.13" height="47.13"/><rect class="cls-1" x="47.13" y="141.4" width="47.13" height="47.13"/><rect class="cls-2" x="94.27" y="141.4" width="47.13" height="47.13"/><rect class="cls-1" x="141.4" y="141.4" width="47.13" height="47.13"/><rect class="cls-2" x="188.53" y="141.4" width="47.13" height="47.13"/><rect class="cls-1" x="235.67" y="141.4" width="47.13" height="47.13"/><rect class="cls-2" x="282.8" y="141.4" width="47.13" height="47.13"/><rect class="cls-1" x="329.93" y="141.4" width="47.13" height="47.13"/><rect class="cls-2" x="377.06" y="141.4" width="47.13" height="47.13"/><rect class="cls-1" x="424.2" y="141.4" width="47.13" height="47.13"/><rect class="cls-2" x="471.33" y="141.4" width="47.13" height="47.13"/><rect class="cls-1" x="518.46" y="141.4" width="47.13" height="47.13"/><rect class="cls-2" x="565.59" y="141.4" width="47.13" height="47.13"/><rect class="cls-1" y="188.53" width="47.13" height="47.13"/><rect class="cls-2" x="47.13" y="188.53" width="47.13" height="47.13"/><rect class="cls-1" x="94.27" y="188.53" width="47.13" height="47.13"/><rect class="cls-2" x="141.4" y="188.53" width="47.13" height="47.13"/><rect class="cls-1" x="188.53" y="188.53" width="47.13" height="47.13"/><rect class="cls-2" x="235.67" y="188.53" width="47.13" height="47.13"/><rect class="cls-1" x="282.8" y="188.53" width="47.13" height="47.13"/><rect class="cls-2" x="329.93" y="188.53" width="47.13" height="47.13"/><rect class="cls-1" x="377.06" y="188.53" width="47.13" height="47.13"/><rect class="cls-2" x="424.2" y="188.53" width="47.13" height="47.13"/><rect class="cls-1" x="471.33" y="188.53" width="47.13" height="47.13"/><rect class="cls-2" x="518.46" y="188.53" width="47.13" height="47.13"/><rect class="cls-1" x="565.59" y="188.53" width="47.13" height="47.13"/><rect class="cls-2" y="235.66" width="47.13" height="47.14"/><rect class="cls-1" x="47.13" y="235.66" width="47.13" height="47.13"/><rect class="cls-2" x="94.27" y="235.66" width="47.13" height="47.13"/><rect class="cls-1" x="141.4" y="235.66" width="47.13" height="47.13"/><rect class="cls-2" x="188.53" y="235.66" width="47.13" height="47.13"/><rect class="cls-1" x="235.67" y="235.66" width="47.13" height="47.13"/><rect class="cls-2" x="282.8" y="235.66" width="47.13" height="47.13"/><rect class="cls-1" x="329.93" y="235.66" width="47.13" height="47.13"/><rect class="cls-2" x="377.06" y="235.66" width="47.13" height="47.13"/><rect class="cls-1" x="424.2" y="235.66" width="47.13" height="47.13"/><rect class="cls-2" x="471.33" y="235.66" width="47.13" height="47.13"/><rect class="cls-1" x="518.46" y="235.66" width="47.13" height="47.13"/><rect class="cls-2" x="565.59" y="235.66" width="47.13" height="47.13"/><rect class="cls-1" y="282.8" width="47.13" height="47.13"/><rect class="cls-2" x="47.13" y="282.8" width="47.13" height="47.13"/><rect class="cls-1" x="94.27" y="282.8" width="47.13" height="47.13"/><rect class="cls-2" x="141.4" y="282.8" width="47.13" height="47.13"/><rect class="cls-1" x="188.53" y="282.8" width="47.13" height="47.13"/><rect class="cls-2" x="235.67" y="282.8" width="47.13" height="47.13"/><rect class="cls-1" x="282.8" y="282.8" width="47.13" height="47.13"/><rect class="cls-2" x="329.93" y="282.8" width="47.13" height="47.13"/><rect class="cls-1" x="377.06" y="282.8" width="47.13" height="47.13"/><rect class="cls-2" x="424.2" y="282.8" width="47.13" height="47.13"/><rect class="cls-1" x="471.33" y="282.8" width="47.13" height="47.13"/><rect class="cls-2" x="518.46" y="282.8" width="47.13" height="47.13"/><rect class="cls-1" x="565.59" y="282.8" width="47.13" height="47.13"/><rect class="cls-2" y="329.93" width="47.13" height="47.13"/><rect class="cls-1" x="47.13" y="329.93" width="47.13" height="47.13"/><rect class="cls-2" x="94.27" y="329.93" width="47.13" height="47.13"/><rect class="cls-1" x="141.4" y="329.93" width="47.13" height="47.13"/><rect class="cls-2" x="188.53" y="329.93" width="47.13" height="47.13"/><rect class="cls-1" x="235.67" y="329.93" width="47.13" height="47.13"/><rect class="cls-2" x="282.8" y="329.93" width="47.13" height="47.13"/><rect class="cls-1" x="329.93" y="329.93" width="47.13" height="47.13"/><rect class="cls-2" x="377.06" y="329.93" width="47.13" height="47.13"/><rect class="cls-1" x="424.2" y="329.93" width="47.13" height="47.13"/><rect class="cls-2" x="471.33" y="329.93" width="47.13" height="47.13"/><rect class="cls-1" x="518.46" y="329.93" width="47.13" height="47.13"/><rect class="cls-2" x="565.59" y="329.93" width="47.13" height="47.13"/><rect class="cls-1" y="377.06" width="47.13" height="47.14"/><rect class="cls-2" x="47.13" y="377.06" width="47.13" height="47.13"/><rect class="cls-1" x="94.27" y="377.06" width="47.13" height="47.13"/><rect class="cls-2" x="141.4" y="377.06" width="47.13" height="47.13"/><rect class="cls-1" x="188.53" y="377.06" width="47.13" height="47.13"/><rect class="cls-2" x="235.67" y="377.06" width="47.13" height="47.13"/><rect class="cls-1" x="282.8" y="377.06" width="47.13" height="47.13"/><rect class="cls-2" x="329.93" y="377.06" width="47.13" height="47.13"/><rect class="cls-1" x="377.06" y="377.06" width="47.13" height="47.13"/><rect class="cls-2" x="424.2" y="377.06" width="47.13" height="47.13"/><rect class="cls-1" x="471.33" y="377.06" width="47.13" height="47.13"/><rect class="cls-2" x="518.46" y="377.06" width="47.13" height="47.13"/><rect class="cls-1" x="565.59" y="377.06" width="47.13" height="47.13"/><rect class="cls-2" y="424.2" width="47.13" height="47.13"/><rect class="cls-1" x="47.13" y="424.19" width="47.13" height="47.13"/><rect class="cls-2" x="94.27" y="424.19" width="47.13" height="47.13"/><rect class="cls-1" x="141.4" y="424.19" width="47.13" height="47.13"/><rect class="cls-2" x="188.53" y="424.19" width="47.13" height="47.13"/><rect class="cls-1" x="235.67" y="424.19" width="47.13" height="47.13"/><rect class="cls-2" x="282.8" y="424.19" width="47.13" height="47.13"/><rect class="cls-1" x="329.93" y="424.19" width="47.13" height="47.13"/><rect class="cls-2" x="377.06" y="424.19" width="47.13" height="47.13"/><rect class="cls-1" x="424.2" y="424.19" width="47.13" height="47.13"/><rect class="cls-2" x="471.33" y="424.19" width="47.13" height="47.13"/><rect class="cls-1" x="518.46" y="424.19" width="47.13" height="47.13"/><rect class="cls-2" x="565.59" y="424.19" width="47.13" height="47.13"/><rect class="cls-1" y="471.33" width="47.13" height="47.13"/><rect class="cls-2" x="47.13" y="471.33" width="47.13" height="47.13"/><rect class="cls-1" x="94.27" y="471.33" width="47.13" height="47.13"/><rect class="cls-2" x="141.4" y="471.33" width="47.13" height="47.13"/><rect class="cls-1" x="188.53" y="471.33" width="47.13" height="47.13"/><rect class="cls-2" x="235.67" y="471.33" width="47.13" height="47.13"/><rect class="cls-1" x="282.8" y="471.33" width="47.13" height="47.13"/><rect class="cls-2" x="329.93" y="471.33" width="47.13" height="47.13"/><rect class="cls-1" x="377.06" y="471.33" width="47.13" height="47.13"/><rect class="cls-2" x="424.2" y="471.33" width="47.13" height="47.13"/><rect class="cls-1" x="471.33" y="471.33" width="47.13" height="47.13"/><rect class="cls-2" x="518.46" y="471.33" width="47.13" height="47.13"/><rect class="cls-1" x="565.59" y="471.33" width="47.13" height="47.13"/><rect class="cls-2" y="518.46" width="47.13" height="47.14"/><rect class="cls-1" x="47.13" y="518.46" width="47.13" height="47.13"/><rect class="cls-2" x="94.27" y="518.46" width="47.13" height="47.13"/><rect class="cls-1" x="141.4" y="518.46" width="47.13" height="47.13"/><rect class="cls-2" x="188.53" y="518.46" width="47.13" height="47.13"/><rect class="cls-1" x="235.67" y="518.46" width="47.13" height="47.13"/><rect class="cls-2" x="282.8" y="518.46" width="47.13" height="47.13"/><rect class="cls-1" x="329.93" y="518.46" width="47.13" height="47.13"/><rect class="cls-2" x="377.06" y="518.46" width="47.13" height="47.13"/><rect class="cls-1" x="424.2" y="518.46" width="47.13" height="47.13"/><rect class="cls-2" x="471.33" y="518.46" width="47.13" height="47.13"/><rect class="cls-1" x="518.46" y="518.46" width="47.13" height="47.13"/><rect class="cls-2" x="565.59" y="518.46" width="47.13" height="47.13"/><rect class="cls-2" x="47.14" y="565.59" width="47.13" height="47.14"/><rect class="cls-1" x="94.27" y="565.59" width="47.13" height="47.13"/><rect class="cls-2" x="141.4" y="565.59" width="47.13" height="47.13"/><rect class="cls-1" x="188.53" y="565.59" width="47.13" height="47.13"/><rect class="cls-2" x="235.67" y="565.59" width="47.13" height="47.13"/><rect class="cls-1" x="282.8" y="565.59" width="47.13" height="47.13"/><rect class="cls-2" x="329.93" y="565.59" width="47.13" height="47.13"/><rect class="cls-1" x="377.06" y="565.59" width="47.13" height="47.13"/><rect class="cls-2" x="424.2" y="565.59" width="47.13" height="47.13"/><rect class="cls-1" x="471.33" y="565.59" width="47.13" height="47.13"/><rect class="cls-2" x="518.46" y="565.59" width="47.13" height="47.13"/><rect class="cls-1" x="565.59" y="565.59" width="47.13" height="47.13"/><rect class="cls-1" y="565.59" width="47.13" height="47.13"/></svg>