<?xml version="1.0" encoding="UTF-8" standalone="no"?>
<!-- Created with Inkscape (http://www.inkscape.org/) -->

<svg
   version="1.1"
   id="svg1"
   width="534.26086"
   height="534.26086"
   viewBox="0 0 534.26086 534.26086"
   xmlns="http://www.w3.org/2000/svg"
   xmlns:svg="http://www.w3.org/2000/svg">
  <defs
     id="defs1" />
  <g
     id="g1">
    <path
       id="path1"
       style="opacity:1;fill:#eef0f0;fill-opacity:1;stroke-width:1.63232;stroke-linejoin:round"
       d="m 389.25391,11.935547 c -6.62161,0.185509 -3.80274,7.560547 -3.80274,7.560547 l -0.46094,0.197265 A 279.38412,279.38412 0 0 1 409.62305,133.04102 279.38412,279.38412 0 0 1 130.23828,412.42383 279.38412,279.38412 0 0 1 35.626953,395.48438 l -0.05664,0.0586 c 0,0 -22.100127,-7.61181 -14.783203,9.625 A 279.38412,279.38412 0 0 0 254.87695,534.26172 279.38412,279.38412 0 0 0 534.26172,254.87695 279.38412,279.38412 0 0 0 391.75391,12.148438 c -0.95289,-0.166641 -1.78363,-0.232961 -2.5,-0.212891 z" />
    <path
       id="path2"
       style="opacity:1;fill:#e4e6e6;fill-opacity:1;stroke-width:1.63232;stroke-linejoin:round"
       d="M 395.88391,14.547976 A 279.38412,279.38412 0 0 1 479.79797,213.28625 279.38412,279.38412 0 0 1 200.4132,492.67102 279.38412,279.38412 0 0 1 61.172964,454.67102 279.38412,279.38412 0 0 0 254.87609,534.26086 279.38412,279.38412 0 0 0 534.26086,254.87609 279.38412,279.38412 0 0 0 395.88391,14.547976 Z" />
    <path
       id="path4"
       style="opacity:1;fill:#eef0f0;fill-opacity:1;stroke-width:1.48913;stroke-linejoin:round"
       d="m 169.14807,16.690976 c -3.33891,-1.128735 -6.94044,2.663705 -6.94044,2.663705 L 122.55115,61.194379 58.464463,49.322873 c -10.163492,-1.882691 -5.472494,7.166006 -5.468048,7.174576 l 0.0021,7.66e-4 29.053228,53.434045 -30.038757,55.33708 -7.65e-4,0.002 c -0.006,0.0121 -4.353468,8.74212 7.020867,8.81143 l 0.0051,-6.2e-4 56.850192,-10.57278 42.90639,45.20486 c 0,0 7.4272,7.59517 10.78416,-1.91527 l 7.7e-4,-0.002 7.71854,-58.91195 58.99143,-28.14517 c 7.25483,-5.44748 0.65682,-8.64434 0.57097,-8.68556 l -0.0143,-0.008 -55.43048,-26.395371 -8.24006,-62.551884 -0.001,-0.0029 c -1.04629,-3.362458 -2.50915,-4.892721 -4.02637,-5.405624 z"
       transform="matrix(0.80640101,-0.28710124,0.28710124,0.80640101,-4.7947409,150.49558)" />
    <path
       id="path5"
       style="opacity:1;fill:#eef0f0;fill-opacity:1;stroke-width:0.674141;stroke-linejoin:round"
       d="m 296.10574,90.422245 c -1.00163,0.0469 -1.7426,1.80458 -1.7426,1.80458 l -11.42969,25.831205 -32.49997,5.20714 c -0.007,0.001 -0.0135,0.003 -0.0207,0.004 -1.09395,0.18158 -0.85273,0.62597 -0.62908,0.86252 l 0.17044,0.15288 c 6e-5,4e-5 0.002,0.001 0.002,0.001 l 23.10521,20.70772 -4.90448,31.32964 -0.001,0.003 -0.0362,0.23345 v 0.001 c -0.0631,0.61332 0.0128,2.1035 2.60822,0.59705 10e-4,-5.3e-4 0.002,-0.002 0.003,-0.002 l 24.89636,-14.45006 27.69775,14.0503 c 0.002,5.3e-4 0.003,0.002 0.004,0.002 2.52647,1.28162 2.4408,-0.47964 2.31383,-1.20855 l -0.062,-0.2913 -6.13577,-28.54065 22.597,-22.6786 v -0.001 c 0.55954,-1.4418 -0.46613,-1.79964 -0.99371,-1.88825 l -0.28613,-0.0289 -29.16248,-2.99662 -14.01209,-27.379605 c -0.003,-0.005 -0.005,-0.009 -0.007,-0.0145 -0.51495,-0.99959 -1.02205,-1.32892 -1.47506,-1.30773 z" />
  </g>
</svg>
