<?xml version="1.0" encoding="UTF-8" standalone="no"?>
<!-- Created with Inkscape (http://www.inkscape.org/) -->

<svg
   version="1.1"
   id="svg1"
   width="481.88235"
   height="481.88235"
   viewBox="0 0 481.88235 481.88235"
   xmlns="http://www.w3.org/2000/svg"
   xmlns:svg="http://www.w3.org/2000/svg">
  <defs
     id="defs1" />
  <g
     id="g1">
    <g
       id="g10"
       transform="translate(602.30629,-253.18419)">
      <g
         id="g3"
         transform="translate(-435.57372,356.76139)">
        <circle
           style="opacity:1;fill:#fcd462;fill-opacity:1;stroke-width:1.3476;stroke-linejoin:round"
           id="path1"
           cx="73.261276"
           cy="138.31224"
           r="138.31224" />
        <path
           id="circle2"
           style="opacity:0.578702;fill:#f6c358;fill-opacity:1;stroke-width:1.3476;stroke-linejoin:round"
           d="m 143.20229,19.017625 c 0.059,0.20691 20.33494,71.39385 -5.52149,138.242195 -25.53895,66.02753 -110.302601,109.13705 -112.632811,110.3125 a 138.31224,138.31224 0 0 0 48.21289,9.05273 A 138.31224,138.31224 0 0 0 211.57338,138.31255 138.31224,138.31224 0 0 0 143.20229,19.017625 Z" />
      </g>
      <rect
         style="opacity:1;fill:#f6c358;fill-opacity:1;stroke-width:1.45521;stroke-linejoin:round"
         id="rect3"
         width="41.380882"
         height="73.56601"
         x="-626.34595"
         y="-140.61618"
         ry="23.859247"
         transform="rotate(-44.41179)" />
      <rect
         style="opacity:1;fill:#f6c358;fill-opacity:1;stroke-width:1.45521;stroke-linejoin:round"
         id="rect4"
         width="41.380882"
         height="73.56601"
         x="-520.1095"
         y="-597.52417"
         ry="23.859247"
         transform="rotate(-89.448184)" />
      <rect
         style="opacity:1;fill:#f6c358;fill-opacity:1;stroke-width:1.45521;stroke-linejoin:round"
         id="rect5"
         width="41.380882"
         height="73.56601"
         x="-125.63126"
         y="-843.64636"
         ry="23.859247"
         transform="rotate(-134.22191)" />
      <rect
         style="opacity:1;fill:#f6c358;fill-opacity:1;stroke-width:1.45521;stroke-linejoin:round"
         id="rect6"
         width="41.380882"
         height="73.56601"
         x="340.21869"
         y="-735.36212"
         ry="23.859247"
         transform="rotate(-179.95326)" />
      <rect
         style="opacity:1;fill:#f6c358;fill-opacity:1;stroke-width:1.45521;stroke-linejoin:round"
         id="rect7"
         width="41.380882"
         height="73.56601"
         x="-622.5365"
         y="267.10385"
         ry="23.859247"
         transform="rotate(-44.41179)" />
      <rect
         style="opacity:1;fill:#f6c358;fill-opacity:1;stroke-width:1.45521;stroke-linejoin:round"
         id="rect8"
         width="41.380882"
         height="73.56601"
         x="-514.31158"
         y="-196.35939"
         ry="23.859247"
         transform="rotate(-90.274839)" />
      <rect
         style="opacity:1;fill:#f6c358;fill-opacity:1;stroke-width:1.45521;stroke-linejoin:round"
         id="rect9"
         width="41.380882"
         height="73.56601"
         x="-131.99971"
         y="-435.31778"
         ry="23.859247"
         transform="rotate(-132.54276)" />
      <rect
         style="opacity:1;fill:#f6c358;fill-opacity:1;stroke-width:1.45521;stroke-linejoin:round"
         id="rect10"
         width="41.380882"
         height="73.56601"
         x="-385.50824"
         y="249.56393"
         ry="23.859247"
         transform="rotate(-0.57066956)" />
    </g>
  </g>
</svg>
